<svg width="174" height="131" viewBox="0 0 174 131" fill="none" xmlns="http://www.w3.org/2000/svg">
<path d="M59.4508 66.9149C59.4508 71.6478 62.2968 74.4876 66.8294 74.4876H95.3954V103.201H61.2428C39.2122 103.201 26.3522 90.3694 26.3522 68.3873V35.572C26.3522 13.5899 39.2122 0.758301 61.2428 0.758301H95.3954V29.4717H66.8294C62.2968 29.4717 59.4508 32.3115 59.4508 37.0445V66.8097V66.9149Z" fill="white"/>
<path d="M140.616 37.2862C140.616 32.5532 137.77 29.7134 133.237 29.7134H104.672V1H138.824C160.855 1 173.715 13.8316 173.715 35.8137V68.629C173.715 90.6111 160.855 103.443 138.824 103.443H104.672V74.7293H133.237C137.77 74.7293 140.616 71.8895 140.616 67.1565V37.3914V37.2862Z" fill="#FD9042"/>
<path d="M108.361 119.745C108.361 113.645 113.421 108.701 119.64 108.701C125.859 108.701 130.708 113.645 130.708 119.745C130.708 125.845 125.753 130.999 119.64 130.999C113.526 130.999 108.361 125.95 108.361 119.745Z" fill="#FD9042"/>
<path d="M22.3468 10.9604V20.0057H15.706V26.6318H6.64081V20.0057H0V10.9604H6.64081V4.33423H15.706V10.9604H22.3468Z" fill="#05DEFF"/>
</svg>
