<svg width="232" height="232" viewBox="0 0 232 232" fill="none" xmlns="http://www.w3.org/2000/svg">
<circle cx="116" cy="116" r="116" fill="black"/>
<path d="M85.1421 129.915C85.1421 134.648 87.9881 137.488 92.5207 137.488H121.087V166.201H86.934C64.9034 166.201 52.0435 153.369 52.0435 131.387V98.572C52.0435 76.5899 64.9034 63.7583 86.934 63.7583H121.087V92.4717H92.5207C87.9881 92.4717 85.1421 95.3115 85.1421 100.044V129.81V129.915Z" fill="white"/>
<path d="M166.307 100.286C166.307 95.5532 163.461 92.7134 158.929 92.7134H130.363V64H164.516C186.546 64 199.406 76.8316 199.406 98.8137V131.629C199.406 153.611 186.546 166.443 164.516 166.443H130.363V137.729H158.929C163.461 137.729 166.307 134.89 166.307 130.157V100.391V100.286Z" fill="#FD9042"/>
<path d="M134.052 182.745C134.052 176.645 139.112 171.701 145.331 171.701C151.55 171.701 156.399 176.645 156.399 182.745C156.399 188.845 151.445 193.999 145.331 193.999C139.217 193.999 134.052 188.95 134.052 182.745Z" fill="#FD9042"/>
<path d="M48.0381 73.9604V83.0057H41.3973V89.6318H32.3321V83.0057H25.6913V73.9604H32.3321V67.3342H41.3973V73.9604H48.0381Z" fill="#05DEFF"/>
</svg>
