<svg width="490" height="107" viewBox="0 0 490 107" fill="none" xmlns="http://www.w3.org/2000/svg">
<g clip-path="url(#clip0_25_79)">
<path d="M32.4493 34.2877V47.4937H22.8258V57.1197H9.62344V47.4937H0V34.2877H9.70297V24.5822H22.9054V34.2877H32.5288H32.4493Z" fill="#05DEFF"/>
<path d="M47.4015 73.0305C47.4015 75.0989 48.5945 76.2922 50.5828 76.2922H62.7513V88.5435H48.1968C38.812 88.5435 33.3242 83.0542 33.3242 73.6669V59.6654C33.3242 50.278 38.812 44.7888 48.1968 44.7888H62.7513V57.0401H50.5828C48.674 57.0401 47.4015 58.2334 47.4015 60.3018V73.0305Z" fill="black"/>
<path d="M103.472 59.6654V73.6669C103.472 83.0542 97.9841 88.5435 88.5993 88.5435H83.032C73.6472 88.5435 68.1594 83.0542 68.1594 73.6669V59.6654C68.1594 50.278 73.6472 44.7888 83.032 44.7888H88.5993C97.9841 44.7888 103.472 50.278 103.472 59.6654ZM89.3946 60.3018C89.3946 58.2334 88.2016 57.0401 86.2133 57.0401H85.4975C83.5887 57.0401 82.3162 58.2334 82.3162 60.3018V73.0305C82.3162 75.0989 83.5092 76.2922 85.4975 76.2922H86.2133C88.1221 76.2922 89.3946 75.0989 89.3946 73.0305V60.3018Z" fill="black"/>
<path d="M131.229 44.7888H145.306V88.4639H131.229V85.6C123.275 92.9189 109.039 89.339 109.039 76.2922V44.7888H123.116V72.0758C123.116 78.8379 130.274 79.3152 131.149 73.0305V44.8684L131.229 44.7888Z" fill="black"/>
<path d="M165.428 47.6528C173.381 40.3338 187.617 43.9138 187.617 56.9606V88.464H173.54V61.177C173.54 54.4149 166.382 53.9376 165.507 60.2223V88.3844H151.43V44.7093H165.507V47.5732L165.428 47.6528Z" fill="black"/>
<path d="M216.249 57.9948H207.341V69.7688C207.341 73.2691 209.409 75.258 212.75 75.3375H216.249V88.5435H207.421C198.434 88.5435 193.105 83.9294 193.105 76.0535V24.5822H207.262V44.7888H216.169V57.9948H216.249Z" fill="black"/>
<path d="M249.493 44.7888V57.9948H242.574C238.438 57.9948 235.893 60.3814 235.893 64.5977V88.5435H221.816V44.8684H235.893V47.6528C238.041 45.823 240.745 44.8684 243.847 44.8684H249.493V44.7888Z" fill="black"/>
<path d="M277.33 44.7888H291.407V92.2029C291.407 101.59 285.919 107.08 276.535 107.08H254.027V93.8736H274.069C276.057 93.8736 277.25 92.6803 277.25 90.6119V85.5204C269.297 92.9189 254.981 89.339 254.981 76.4513V44.7888H269.059V72.0758C269.059 79.2357 277.25 79.3948 277.25 71.678V44.7888H277.33Z" fill="black"/>
<path d="M312.722 73.0305C312.722 75.0989 313.915 76.2922 315.903 76.2922H328.072V88.5435H313.517C304.133 88.5435 298.645 83.0542 298.645 73.6669V59.6654C298.645 50.278 304.133 44.7888 313.517 44.7888H328.072V57.0401H315.903C313.995 57.0401 312.722 58.2334 312.722 60.3018V73.0305Z" fill="#FD9042"/>
<path d="M368.792 59.6654V73.6669C368.792 83.0542 363.305 88.5435 353.92 88.5435H348.353C338.968 88.5435 333.48 83.0542 333.48 73.6669V59.6654C333.48 50.278 338.968 44.7888 348.353 44.7888H353.92C363.305 44.7888 368.792 50.278 368.792 59.6654ZM354.715 60.3018C354.715 58.2334 353.522 57.0401 351.534 57.0401H350.818C348.909 57.0401 347.637 58.2334 347.637 60.3018V73.0305C347.637 75.0989 348.83 76.2922 350.818 76.2922H351.534C353.443 76.2922 354.715 75.0989 354.715 73.0305V60.3018Z" fill="#FD9042"/>
<path d="M396.629 24.5822H410.706V88.4639H396.629V85.5204C388.675 92.919 374.36 89.339 374.36 76.4513V59.6654C374.36 50.2781 379.847 44.7888 389.232 44.7888H396.629V24.5822ZM388.516 72.0758C388.516 79.2357 396.708 79.3948 396.708 71.6781V57.0401H391.698C389.789 57.0401 388.516 58.2335 388.516 60.3019V72.0758Z" fill="#FD9042"/>
<path d="M451.904 59.6654V71.2803H431.305V73.0305C431.305 75.0989 432.498 76.2922 434.486 76.2922H451.268V88.5435H432.1C422.716 88.5435 417.228 83.0542 417.228 73.6669V59.6654C417.228 50.278 422.716 44.7888 432.1 44.7888H437.668C446.496 44.7888 451.984 50.278 451.984 59.6654H451.904ZM431.305 63.7226H438.383V60.3018C438.383 58.2334 437.19 57.0401 435.202 57.0401H434.486C432.578 57.0401 431.305 58.2334 431.305 60.3018V63.7226Z" fill="#FD9042"/>
<path d="M457.312 74.7012C453.494 57.9948 474.412 51.7896 474.412 42.8C474.412 40.7316 473.219 39.5383 471.23 39.5383H451.904V24.6617H472.662C484.751 24.6617 490 30.6283 490 43.6751C490 59.1086 474.173 57.9948 468.606 74.6216H457.312V74.7012ZM457.869 84.7249C457.869 82.0997 460.016 80.0313 462.72 80.0313C465.424 80.0313 467.413 82.1792 467.413 84.7249C467.413 87.2707 465.265 89.5777 462.72 89.5777C460.175 89.5777 457.869 87.4298 457.869 84.7249Z" fill="#FD9042"/>
<path d="M137.512 14.8766L132.819 0.954712H134.33L138.705 14.0811H137.989L142.522 0.954712H143.874L148.328 14.0811H147.612L152.066 0.954712H153.498L148.805 14.8766H147.215L142.92 2.38668H143.318L139.023 14.8766H137.512Z" fill="black"/>
<path d="M171.472 14.8766H170.041V0.954712H171.472V14.8766ZM180.38 8.43278H171.313V7.15992H180.38V8.43278ZM180.221 0.954712H181.652V14.8766H180.221V0.954712Z" fill="black"/>
<path d="M197.559 14.8766L203.921 0.954712H205.353L211.716 14.8766H210.125L204.24 1.75025H204.876L198.99 14.8766H197.479H197.559ZM200.024 11.1376L200.422 9.9443H208.534L208.932 11.1376H199.945H200.024Z" fill="black"/>
<path d="M230.326 14.8766V2.22757H225.395V0.954712H236.689V2.22757H231.758V14.8766H230.247H230.326Z" fill="black"/>
<path d="M251.482 4.93239L252.357 1.27291L252.516 2.06845C252.516 2.06845 251.959 1.9889 251.72 1.75024C251.482 1.59113 251.402 1.27291 251.402 0.954697C251.402 0.636481 251.482 0.39782 251.72 0.159158C251.959 5.01871e-05 252.198 -0.159058 252.436 -0.159058C252.675 -0.159058 252.993 -0.0795037 253.152 0.159158C253.311 0.39782 253.47 0.636481 253.47 0.954697C253.47 1.03425 253.47 1.19336 253.47 1.27291C253.47 1.35247 253.47 1.51157 253.47 1.59113C253.47 1.75024 253.391 1.90934 253.311 2.06845L252.436 4.85284H251.482V4.93239Z" fill="black"/>
<path d="M274.228 15.0357C273.194 15.0357 272.24 14.8766 271.206 14.5584C270.252 14.2401 269.536 13.7628 268.979 13.2855L269.536 12.1717C270.013 12.6491 270.649 13.0468 271.524 13.365C272.399 13.6833 273.194 13.8424 274.149 13.8424C275.103 13.8424 275.739 13.7628 276.296 13.5242C276.853 13.2855 277.25 13.0468 277.489 12.6491C277.728 12.2513 277.887 11.8535 277.887 11.3762C277.887 10.8193 277.728 10.4216 277.409 10.0238C277.091 9.70557 276.694 9.38735 276.216 9.22824C275.739 9.06914 275.183 8.91003 274.546 8.75092C273.91 8.59181 273.353 8.43271 272.717 8.2736C272.081 8.11449 271.524 7.87583 271.047 7.63717C270.57 7.31895 270.092 7.00074 269.774 6.52341C269.456 6.04609 269.297 5.48921 269.297 4.69367C269.297 3.97769 269.456 3.34126 269.854 2.78438C270.252 2.2275 270.808 1.75018 271.524 1.35241C272.24 1.03419 273.274 0.795532 274.467 0.795532C275.262 0.795532 276.057 0.875086 276.773 1.11375C277.569 1.35241 278.205 1.67063 278.762 1.98884L278.284 3.18215C277.648 2.78438 277.012 2.46616 276.376 2.30706C275.739 2.14795 275.023 1.98884 274.467 1.98884C273.592 1.98884 272.956 2.06839 272.399 2.30706C271.842 2.54572 271.445 2.86393 271.206 3.18215C270.967 3.57992 270.808 3.97769 270.808 4.45501C270.808 5.01189 270.967 5.40966 271.285 5.80743C271.604 6.2052 272.001 6.36431 272.558 6.60297C273.115 6.84163 273.592 6.92118 274.228 7.08029C274.864 7.2394 275.421 7.39851 276.057 7.55761C276.694 7.71672 277.25 7.95538 277.728 8.19404C278.205 8.43271 278.682 8.83048 279 9.3078C279.318 9.78512 279.477 10.342 279.477 11.058C279.477 11.6944 279.318 12.3308 278.921 12.9673C278.523 13.5242 277.966 14.0015 277.25 14.3197C276.455 14.6379 275.501 14.8766 274.308 14.8766L274.228 15.0357Z" fill="black"/>
<path d="M315.028 14.8766V0.954712H316.221L322.584 11.8536H321.948L328.231 0.954712H329.424V14.8766H327.992V3.18222H328.31L322.505 13.1265H321.789L315.903 3.18222H316.301V14.9562H314.869L315.028 14.8766Z" fill="black"/>
<path d="M350.898 14.8766V9.70564L351.216 10.6603L345.33 0.954712H346.921L352.091 9.46698H351.216L356.385 0.954712H357.896L352.011 10.6603L352.329 9.70564V14.8766H350.898Z" fill="black"/>
</g>
<defs>
<clipPath id="clip0_25_79">
<rect width="490" height="107" fill="white"/>
</clipPath>
</defs>
</svg>
