<svg width="277" height="61" viewBox="0 0 277 61" fill="none" xmlns="http://www.w3.org/2000/svg">
<g clip-path="url(#clip0_1_741)">
<path d="M18.2813 19.3171V26.757H12.8596V32.1801H5.42166V26.757H0V19.3171H5.46646V13.8491H12.9044V19.3171H18.3261H18.2813Z" fill="#05DEFF"/>
<path d="M26.7048 41.1439C26.7048 42.3092 27.3769 42.9815 28.4971 42.9815H35.3525V49.8837H27.1528C21.8656 49.8837 18.7739 46.7911 18.7739 41.5025V33.6143C18.7739 28.3257 21.8656 25.2332 27.1528 25.2332H35.3525V32.1353H28.4971C27.4217 32.1353 26.7048 32.8076 26.7048 33.9729V41.1439Z" fill="white"/>
<path d="M58.2938 33.6143V41.5025C58.2938 46.7911 55.2021 49.8837 49.9148 49.8837H46.7783C41.4911 49.8837 38.3994 46.7911 38.3994 41.5025V33.6143C38.3994 28.3257 41.4911 25.2332 46.7783 25.2332H49.9148C55.2021 25.2332 58.2938 28.3257 58.2938 33.6143ZM50.3629 33.9729C50.3629 32.8076 49.6908 32.1353 48.5706 32.1353H48.1674C47.092 32.1353 46.3751 32.8076 46.3751 33.9729V41.1439C46.3751 42.3092 47.0472 42.9815 48.1674 42.9815H48.5706C49.646 42.9815 50.3629 42.3092 50.3629 41.1439V33.9729Z" fill="white"/>
<path d="M73.9318 25.2332H81.8627V49.8388H73.9318V48.2254C69.4511 52.3487 61.4307 50.3319 61.4307 42.9815V25.2332H69.3615V40.6061C69.3615 44.4157 73.3941 44.6846 73.887 41.1439V25.278L73.9318 25.2332Z" fill="white"/>
<path d="M93.1985 26.8466C97.6792 22.7232 105.7 24.7401 105.7 32.0904V49.8388H97.7689V34.4659C97.7689 30.6562 93.7362 30.3873 93.2433 33.928V49.794H85.3125V25.1883H93.2433V26.8018L93.1985 26.8466Z" fill="white"/>
<path d="M121.83 32.6731H116.812V39.3064C116.812 41.2784 117.977 42.3989 119.859 42.4437H121.83V49.8837H116.857C111.794 49.8837 108.792 47.2842 108.792 42.8471V13.8491H116.767V25.2332H121.786V32.6731H121.83Z" fill="white"/>
<path d="M140.56 25.2332V32.6731H136.661C134.331 32.6731 132.898 34.0177 132.898 36.3931V49.8837H124.967V25.278H132.898V26.8466C134.107 25.8158 135.631 25.278 137.378 25.278H140.56V25.2332Z" fill="white"/>
<path d="M156.242 25.2332H164.173V51.9453C164.173 57.234 161.081 60.3265 155.794 60.3265H143.114V52.8865H154.405C155.525 52.8865 156.197 52.2143 156.197 51.049V48.1805C151.717 52.3487 143.651 50.3318 143.651 43.0712V25.2332H151.582V40.6061C151.582 44.6398 156.197 44.7295 156.197 40.382V25.2332H156.242Z" fill="white"/>
<path d="M176.181 41.1439C176.181 42.3092 176.853 42.9815 177.974 42.9815H184.829V49.8837H176.629C171.342 49.8837 168.25 46.7911 168.25 41.5025V33.6143C168.25 28.3257 171.342 25.2332 176.629 25.2332H184.829V32.1353H177.974C176.898 32.1353 176.181 32.8076 176.181 33.9729V41.1439Z" fill="#EE8C46"/>
<path d="M207.77 33.6143V41.5025C207.77 46.7911 204.679 49.8837 199.391 49.8837H196.255C190.968 49.8837 187.876 46.7911 187.876 41.5025V33.6143C187.876 28.3257 190.968 25.2332 196.255 25.2332H199.391C204.679 25.2332 207.77 28.3257 207.77 33.6143ZM199.839 33.9729C199.839 32.8076 199.167 32.1353 198.047 32.1353H197.644C196.569 32.1353 195.852 32.8076 195.852 33.9729V41.1439C195.852 42.3092 196.524 42.9815 197.644 42.9815H198.047C199.123 42.9815 199.839 42.3092 199.839 41.1439V33.9729Z" fill="#EE8C46"/>
<path d="M223.453 13.8491H231.384V49.8389H223.453V48.1805C218.972 52.3487 210.907 50.3319 210.907 43.0712V33.6143C210.907 28.3257 213.998 25.2332 219.286 25.2332H223.453V13.8491ZM218.882 40.6061C218.882 44.6398 223.498 44.7295 223.498 40.382V32.1353H220.675C219.599 32.1353 218.882 32.8076 218.882 33.9729V40.6061Z" fill="#EE8C46"/>
<path d="M254.594 33.6143V40.1579H242.989V41.1439C242.989 42.3092 243.661 42.9815 244.781 42.9815H254.236V49.8837H243.437C238.15 49.8837 235.058 46.7911 235.058 41.5025V33.6143C235.058 28.3257 238.15 25.2332 243.437 25.2332H246.574C251.547 25.2332 254.639 28.3257 254.639 33.6143H254.594ZM242.989 35.9001H246.977V33.9729C246.977 32.8076 246.305 32.1353 245.185 32.1353H244.781C243.706 32.1353 242.989 32.8076 242.989 33.9729V35.9001Z" fill="#EE8C46"/>
<path d="M257.641 42.0851C255.49 32.6731 267.274 29.1772 267.274 24.1127C267.274 22.9474 266.602 22.2751 265.482 22.2751H254.594V13.8939H266.288C273.099 13.8939 276.056 17.2554 276.056 24.6057C276.056 33.3006 267.14 32.6731 264.003 42.0403H257.641V42.0851ZM257.954 47.7323C257.954 46.2533 259.164 45.088 260.688 45.088C262.211 45.088 263.331 46.2981 263.331 47.7323C263.331 49.1665 262.121 50.4663 260.688 50.4663C259.254 50.4663 257.954 49.2562 257.954 47.7323Z" fill="#EE8C46"/>
<path d="M77.4713 8.38118L74.8276 0.537842H75.679L78.1434 7.93299H77.7401L80.2941 0.537842H81.0558L83.565 7.93299H83.1617L85.6709 0.537842H86.4775L83.8338 8.38118H82.9377L80.5181 1.34459H80.7422L78.3226 8.38118H77.4713Z" fill="white"/>
<path d="M96.6039 8.38118H95.7974V0.537842H96.6039V8.38118ZM101.622 4.75084H96.5143V4.03373H101.622V4.75084ZM101.533 0.537842H102.339V8.38118H101.533V0.537842Z" fill="white"/>
<path d="M111.301 8.38118L114.885 0.537842H115.692L119.276 8.38118H118.38L115.064 0.986033H115.423L112.107 8.38118H111.256H111.301ZM112.69 6.27469L112.914 5.6024H117.484L117.708 6.27469H112.645H112.69Z" fill="white"/>
<path d="M129.761 8.38118V1.25495H126.983V0.537842H133.346V1.25495H130.567V8.38118H129.716H129.761Z" fill="white"/>
<path d="M141.68 2.77882L142.172 0.717144L142.262 1.16534C142.262 1.16534 141.948 1.12052 141.814 0.986059C141.68 0.896421 141.635 0.717144 141.635 0.537868C141.635 0.358591 141.68 0.224134 141.814 0.0896768C141.948 3.85866e-05 142.083 -0.0895996 142.217 -0.0895996C142.352 -0.0895996 142.531 -0.0447805 142.621 0.0896768C142.71 0.224134 142.8 0.358591 142.8 0.537868C142.8 0.582687 142.8 0.672325 142.8 0.717144C142.8 0.761963 142.8 0.851601 142.8 0.896421C142.8 0.986059 142.755 1.0757 142.71 1.16534L142.217 2.734H141.68V2.77882Z" fill="white"/>
<path d="M154.494 8.47086C153.912 8.47086 153.374 8.38122 152.792 8.20195C152.254 8.02267 151.851 7.75375 151.537 7.48484L151.851 6.85737C152.12 7.12629 152.478 7.35038 152.971 7.52966C153.464 7.70894 153.912 7.79857 154.45 7.79857C154.987 7.79857 155.346 7.75376 155.659 7.6193C155.973 7.48484 156.197 7.35038 156.331 7.12629C156.466 6.90219 156.555 6.6781 156.555 6.40918C156.555 6.09545 156.466 5.87135 156.287 5.64726C156.107 5.46798 155.883 5.2887 155.615 5.19907C155.346 5.10943 155.032 5.01979 154.674 4.93015C154.315 4.84051 154.002 4.75088 153.643 4.66124C153.285 4.5716 152.971 4.43714 152.702 4.30268C152.433 4.12341 152.164 3.94413 151.985 3.67522C151.806 3.4063 151.716 3.09257 151.716 2.64438C151.716 2.24101 151.806 1.88245 152.03 1.56872C152.254 1.25499 152.568 0.986071 152.971 0.761976C153.374 0.582699 153.957 0.448242 154.629 0.448242C155.077 0.448242 155.525 0.493061 155.928 0.627519C156.376 0.761976 156.735 0.941252 157.048 1.12053L156.78 1.79282C156.421 1.56872 156.063 1.38944 155.704 1.29981C155.346 1.21017 154.942 1.12053 154.629 1.12053C154.136 1.12053 153.777 1.16535 153.464 1.29981C153.15 1.43426 152.926 1.61354 152.792 1.79282C152.657 2.01691 152.568 2.24101 152.568 2.50992C152.568 2.82365 152.657 3.04775 152.837 3.27185C153.016 3.49594 153.24 3.58558 153.553 3.72004C153.867 3.85449 154.136 3.89931 154.494 3.98895C154.853 4.07859 155.166 4.16823 155.525 4.25787C155.883 4.3475 156.197 4.48196 156.466 4.61642C156.735 4.75088 157.004 4.97497 157.183 5.24389C157.362 5.5128 157.452 5.82653 157.452 6.22991C157.452 6.58846 157.362 6.94701 157.138 7.30556C156.914 7.6193 156.6 7.88821 156.197 8.06749C155.749 8.24676 155.211 8.38122 154.539 8.38122L154.494 8.47086Z" fill="white"/>
<path d="M177.481 8.38118V0.537842H178.153L181.737 6.67806H181.379L184.919 0.537842H185.591V8.38118H184.784V1.79278H184.964L181.693 7.39516H181.289L177.974 1.79278H178.198V8.426H177.391L177.481 8.38118Z" fill="white"/>
<path d="M197.689 8.38118V5.46794L197.868 6.00577L194.552 0.537842H195.448L198.361 5.33349H197.868L200.78 0.537842H201.632L198.316 6.00577L198.495 5.46794V8.38118H197.689Z" fill="white"/>
</g>
<defs>
<clipPath id="clip0_1_741">
<rect width="276.056" height="60.2817" fill="white"/>
</clipPath>
</defs>
</svg>
